# xmcd
#
# Track frame offsets:
#	150
#	13779
#	30262
#	41785
#	59202
#	80003
#	90988
#	107399
#	118288
#	131839
#	146262
#	161145
#	178230
#	195805
#
# Disc length: 2767 seconds
#
# Revision: 0
# Processed by: cddbd v1.5.1PL0 Copyright (c) Steve Scherf et al.
# Submitted via: dBpowerAMP V4.0
#
DISCID=bc0acd0e
DTITLE=Alan Munde Gazette - Alan Munde Gazette
DYEAR=2004
DGENRE=Bluegrass
TTITLE0=This Morning at Nine
TTITLE1=Don't Think Twice
TTITLE2=Hamilton County Breakdown
TTITLE3=My Kentucky Dream
TTITLE4=Deep Ellum Blues
TTITLE5=Daybreak in Dixie
TTITLE6=Softly and Tenderly
TTITLE7=Alberta Bound
TTITLE8=Darcy Farrow
TTITLE9=Misty Morning Amble
TTITLE10=Put It Off Until Tomorrow
TTITLE11=Home Again
TTITLE12=It's Never Too Late
TTITLE13=Never Ending Song of Love
EXTD=my dad's band
EXTT0=
EXTT1=
EXTT2=
EXTT3=
EXTT4=
EXTT5=
EXTT6=
EXTT7=
EXTT8=
EXTT9=
EXTT10=
EXTT11=
EXTT12=
EXTT13=
PLAYORDER=
